<svg width="28" height="27" viewBox="0 0 28 27" fill="none" xmlns="http://www.w3.org/2000/svg">
<path d="M27.5 13.5C27.5 6.04336 21.4566 0 14 0C6.54336 0 0.5 6.04336 0.5 13.5C0.5 20.9566 6.54336 27 14 27C14.0791 27 14.1582 27 14.2373 26.9947V16.49H11.3369V13.1098H14.2373V10.6207C14.2373 7.73613 15.9986 6.16465 18.5721 6.16465C19.8061 6.16465 20.866 6.2543 21.1719 6.29648V9.31289H19.4C18.0025 9.31289 17.7283 9.97734 17.7283 10.9529V13.1045H21.077L20.6393 16.4848H17.7283V26.4779C23.3709 24.859 27.5 19.6646 27.5 13.5Z" fill="#C8C8C8"/>
</svg>
