<svg width="50" height="50" viewBox="0 0 50 50" fill="none" xmlns="http://www.w3.org/2000/svg">
<path opacity="0.3" d="M26.2398 13.7293C25.7074 12.8187 25.0069 11.7119 25.0069 11.7119C25.0069 11.7119 22.3451 15.8868 21.3505 17.4418C23.0036 17.2317 27.5287 15.9988 27.5287 15.9988C27.5287 15.9988 26.7862 14.6259 26.2398 13.7293Z" fill="white"/>
<path opacity="0.3" d="M12.1603 31.9698C12.1603 31.9698 13.295 32.1099 14.668 32.0398C16.0269 31.9838 17.1897 31.7737 17.1897 31.7737L14.724 27.809L12.1603 31.9698Z" fill="white"/>
<path opacity="0.3" d="M17.3297 17.9462L25.1891 5.81395L31.003 15.1863C31.003 15.1863 32.9503 14.5979 36.4948 14.5419C40.0392 14.4999 42.8411 15.9569 42.8411 15.9569C42.8411 15.9569 40.9498 19.151 40.1232 20.4399C39.2967 21.7288 37.1112 25.1891 37.1112 25.1891L38.9744 28.2432C38.9744 28.2432 37.9377 28.1171 37.2653 28.0891C36.5928 28.0471 35.2899 28.0751 35.2899 28.0751L34.5194 29.2379C34.5194 29.2379 37.9377 29.364 42.8131 30.5968C45.1106 31.1852 47.5483 32.1238 48.8091 32.6422C49.5797 30.2326 49.9999 27.6688 49.9999 25.007C49.9999 11.1936 38.8063 0 24.9929 0C14.9901 0 6.36027 5.884 2.36755 14.3738C4.07672 15.1443 6.64046 16.195 9.33029 16.8815C14.1215 18.1003 17.3297 17.9462 17.3297 17.9462Z" fill="white"/>
<path opacity="0.3" d="M32.6562 32.0538L24.7969 44.186L18.9829 34.8137C18.9829 34.8137 17.0356 35.4021 13.4912 35.4581C9.94676 35.5001 7.14486 34.0431 7.14486 34.0431C7.14486 34.0431 9.03615 30.849 9.86271 29.5601C10.6893 28.2712 12.8748 24.8109 12.8748 24.8109L11.0115 21.7568C11.0115 21.7568 12.0482 21.8829 12.7207 21.9109C13.3931 21.9529 14.696 21.9249 14.696 21.9249L15.4665 20.7621C15.4665 20.7621 12.0482 20.636 7.17288 19.4032C4.87532 18.8148 2.43766 17.8761 1.1768 17.3578C0.420286 19.7674 0 22.3312 0 24.993C0 38.7924 11.1936 49.986 24.993 49.986C34.9958 49.986 43.6257 44.102 47.6184 35.6122C45.9092 34.8417 43.3455 33.791 40.6556 33.1045C35.8644 31.8997 32.6562 32.0538 32.6562 32.0538Z" fill="white"/>
<path opacity="0.3" d="M23.6761 36.1726C24.2084 37.0832 24.9089 38.19 24.9089 38.19C24.9089 38.19 27.5707 34.0151 28.5654 32.4601C26.9123 32.6702 22.3872 33.9031 22.3872 33.9031C22.3872 33.9031 23.1297 35.276 23.6761 36.1726Z" fill="white"/>
<path opacity="0.3" d="M37.7277 17.9322C37.7277 17.9322 36.5929 17.7921 35.22 17.8621C33.861 17.9182 32.6982 18.1283 32.6982 18.1283L35.1639 22.093L37.7277 17.9322Z" fill="white"/>
<path opacity="0.3" d="M24.3625 19.8655C22.121 20.3138 19.3611 20.594 19.3611 20.594L16.8534 24.5447L20.72 31.1291C20.72 31.1291 24.3065 30.2746 26.4079 29.8823C28.5093 29.49 30.5827 29.3219 30.5827 29.3219L33.0764 25.3712L29.1538 18.8008C29.1397 18.7867 26.52 19.4452 24.3625 19.8655Z" fill="white"/>
<path d="M42.8131 30.5968C37.9377 29.364 34.5194 29.2379 34.5194 29.2379L35.29 28.0751C35.29 28.0751 36.6068 28.0471 37.2653 28.0891C37.9378 28.1311 38.9745 28.2432 38.9745 28.2432L37.1112 25.1891C37.1112 25.1891 39.3107 21.7288 40.1232 20.4399C40.9498 19.151 42.8411 15.9569 42.8411 15.9569C42.8411 15.9569 40.0532 14.4999 36.4948 14.5419C32.9504 14.5839 31.003 15.1863 31.003 15.1863L25.1891 5.81396L17.3297 17.9462C17.3297 17.9462 14.1216 18.1003 9.31629 16.8815C6.62646 16.195 4.06272 15.1443 2.35356 14.3738C1.90525 15.3404 1.49898 16.3351 1.17676 17.3718C2.43762 17.8902 4.87527 18.8288 7.17283 19.4172C12.0481 20.6501 15.4665 20.7761 15.4665 20.7761L14.6959 21.9389C14.6959 21.9389 13.3791 21.9669 12.7206 21.9249C12.0481 21.8829 11.0114 21.7708 11.0114 21.7708L12.8747 24.8249C12.8747 24.8249 10.6752 28.2852 9.86266 29.5741C9.0361 30.863 7.14481 34.0572 7.14481 34.0572C7.14481 34.0572 9.93271 35.5142 13.4911 35.4721C17.0355 35.4301 18.9829 34.8277 18.9829 34.8277L24.7968 44.2001L32.6562 32.0678C32.6562 32.0678 35.8643 31.9137 40.6696 33.1325C43.3594 33.819 45.9232 34.8697 47.6323 35.6402C48.0806 34.6736 48.4869 33.6789 48.8091 32.6422C47.5483 32.1239 45.1106 31.1712 42.8131 30.5968ZM25.021 11.712C25.021 11.712 25.7074 12.8327 26.2538 13.7293C26.7862 14.64 27.5427 15.9989 27.5427 15.9989C27.5427 15.9989 23.0036 17.2317 21.3645 17.4419C22.3592 15.8728 25.021 11.712 25.021 11.712ZM14.6819 32.0538C13.309 32.1098 12.1742 31.9838 12.1742 31.9838L14.738 27.8229L17.2037 31.7876C17.1896 31.7736 16.0269 31.9838 14.6819 32.0538ZM24.8949 38.19C24.8949 38.19 24.2084 37.0692 23.662 36.1726C23.1297 35.262 22.3732 33.9031 22.3732 33.9031C22.3732 33.9031 26.9123 32.6702 28.5514 32.4601C27.5567 34.0292 24.8949 38.19 24.8949 38.19ZM30.5828 29.322C30.5828 29.322 28.5093 29.4901 26.4079 29.8823C24.3065 30.2746 20.72 31.1292 20.72 31.1292L16.8534 24.5447L19.3611 20.594C19.3611 20.594 22.121 20.3138 24.3625 19.8655C26.52 19.4452 29.1538 18.7868 29.1538 18.7868L33.0764 25.3573L30.5828 29.322ZM32.7122 18.1283C32.7122 18.1283 33.875 17.9182 35.2339 17.8622C36.6068 17.8061 37.7416 17.9322 37.7416 17.9322L35.1779 22.093L32.7122 18.1283Z" fill="#FAFAFA"/>
<path d="M42.8131 30.5968C37.9377 29.364 34.5194 29.2379 34.5194 29.2379L35.29 28.0751C35.29 28.0751 36.6068 28.0471 37.2653 28.0891C37.9378 28.1311 38.9745 28.2432 38.9745 28.2432L37.1112 25.1891C37.1112 25.1891 39.3107 21.7288 40.1232 20.4399C40.9498 19.151 42.8411 15.9569 42.8411 15.9569C42.8411 15.9569 40.0532 14.4999 36.4948 14.5419C32.9504 14.5839 31.003 15.1863 31.003 15.1863L25.1891 5.81396L17.3297 17.9462C17.3297 17.9462 14.1216 18.1003 9.31629 16.8815C6.62646 16.195 4.06272 15.1443 2.35356 14.3738C1.90525 15.3404 1.49898 16.3351 1.17676 17.3718C2.43762 17.8902 4.87527 18.8288 7.17283 19.4172C12.0481 20.6501 15.4665 20.7761 15.4665 20.7761L14.6959 21.9389C14.6959 21.9389 13.3791 21.9669 12.7206 21.9249C12.0481 21.8829 11.0114 21.7708 11.0114 21.7708L12.8747 24.8249C12.8747 24.8249 10.6752 28.2852 9.86266 29.5741C9.0361 30.863 7.14481 34.0572 7.14481 34.0572C7.14481 34.0572 9.93271 35.5142 13.4911 35.4721C17.0355 35.4301 18.9829 34.8277 18.9829 34.8277L24.7968 44.2001L32.6562 32.0678C32.6562 32.0678 35.8643 31.9137 40.6696 33.1325C43.3594 33.819 45.9232 34.8697 47.6323 35.6402C48.0806 34.6736 48.4869 33.6789 48.8091 32.6422C47.5483 32.1239 45.1106 31.1712 42.8131 30.5968ZM25.021 11.712C25.021 11.712 25.7074 12.8327 26.2538 13.7293C26.7862 14.64 27.5427 15.9989 27.5427 15.9989C27.5427 15.9989 23.0036 17.2317 21.3645 17.4419C22.3592 15.8728 25.021 11.712 25.021 11.712ZM14.6819 32.0538C13.309 32.1098 12.1742 31.9838 12.1742 31.9838L14.738 27.8229L17.2037 31.7876C17.1896 31.7736 16.0269 31.9838 14.6819 32.0538ZM24.8949 38.19C24.8949 38.19 24.2084 37.0692 23.662 36.1726C23.1297 35.262 22.3732 33.9031 22.3732 33.9031C22.3732 33.9031 26.9123 32.6702 28.5514 32.4601C27.5567 34.0292 24.8949 38.19 24.8949 38.19ZM30.5828 29.322C30.5828 29.322 28.5093 29.4901 26.4079 29.8823C24.3065 30.2746 20.72 31.1292 20.72 31.1292L16.8534 24.5447L19.3611 20.594C19.3611 20.594 22.121 20.3138 24.3625 19.8655C26.52 19.4452 29.1538 18.7868 29.1538 18.7868L33.0764 25.3573L30.5828 29.322ZM32.7122 18.1283C32.7122 18.1283 33.875 17.9182 35.2339 17.8622C36.6068 17.8061 37.7416 17.9322 37.7416 17.9322L35.1779 22.093L32.7122 18.1283Z" fill="white"/>
</svg>
